<?xml version="1.0" encoding="UTF-8" standalone="no"?>
<!DOCTYPE svg PUBLIC "-//W3C//DTD SVG 1.1//EN"
"http://www.w3.org/Graphics/SVG/1.1/DTD/svg11.dtd">
<svg viewBox="0 0 935 1210" version="1.1" xmlns="http://www.w3.org/2000/svg" xmlns:xlink="http://www.w3.org/1999/xlink">
<defs>
<style type="text/css"><![CDATA[
.g1_5{
fill: #0563C1;
}
]]></style>
</defs>
<path d="M220,271.9l10.6,0l0,-1.3l-10.6,0l0,1.3Z" class="g1_5" />
<path d="M243.3,271.9l9.9,0l0,-1.3l-9.9,0l0,1.3Z" class="g1_5" />
<path d="M265.7,271.9l9.7,0l0,-1.3l-9.7,0l0,1.3Z" class="g1_5" />
<path d="M287.8,271.9l11.2,0l0,-1.3l-11.2,0l0,1.3Z" class="g1_5" />
<path d="M311.5,271.9l9,0l0,-1.3l-9,0l0,1.3Z" class="g1_5" />
<path d="M332.9,271.9l8.5,0l0,-1.3l-8.5,0l0,1.3Z" class="g1_5" />
<path d="M353.8,271.9l11.6,0l0,-1.3l-11.6,0l0,1.3Z" class="g1_5" />
<path d="M377.9,271.9l11.3,0l0,-1.3l-11.3,0l0,1.3Z" class="g1_5" />
<path d="M401.7,271.9l4.4,0l0,-1.3l-4.4,0l0,1.3Z" class="g1_5" />
<path d="M458.9,271.9l7.7,0l0,-1.3l-7.7,0l0,1.3Z" class="g1_5" />
<path d="M479.1,271.9l15.5,0l0,-1.3l-15.5,0l0,1.3Z" class="g1_5" />
<path d="M507.1,271.9l11.9,0l0,-1.3l-11.9,0l0,1.3Z" class="g1_5" />
<path d="M531.5,271.9l12.1,0l0,-1.3l-12.1,0l0,1.3Z" class="g1_5" />
<path d="M556,271.9l9.4,0l0,-1.3l-9.4,0l0,1.3Z" class="g1_5" />
<path d="M577.9,271.9l12.3,0l0,-1.3l-12.3,0l0,1.3Z" class="g1_5" />
<path d="M602.8,271.9l9.9,0l0,-1.3l-9.9,0l0,1.3Z" class="g1_5" />
<path d="M625.2,271.9l8.4,0l0,-1.3l-8.4,0l0,1.3Z" class="g1_5" />
<path d="M645.9,271.9l9,0l0,-1.3l-9,0l0,1.3Z" class="g1_5" />
<path d="M667.3,271.9l11.8,0l0,-1.3l-11.8,0l0,1.3Z" class="g1_5" />
<path d="M691.5,271.9l10.5,0l0,-1.3l-10.5,0l0,1.3Z" class="g1_5" />
<path d="M714.5,271.9l16.1,0l0,-1.3l-16.1,0l0,1.3Z" class="g1_5" />
<path d="M786.5,271.9l8.4,0l0,-1.3l-8.4,0l0,1.3Z" class="g1_5" />
</svg>